<svg version="1.1" xmlns="http://www.w3.org/2000/svg" xmlns:xlink="http://www.w3.org/1999/xlink" width="481" height="558"><defs></defs><g><g transform="translate(-94,-34) scale(1,1)"><rect fill="#C0C0C0" stroke="none" x="111" y="51" width="226" height="145" opacity="0.2"></rect></g><g transform="translate(-94,-34) scale(1,1)"><rect fill="#ffffff" stroke="none" x="104" y="44" width="226" height="145"></rect></g><g transform="translate(-94,-34) scale(1,1)"><path fill="none" stroke="#000000" d="M 104 44 L 330 44 L 330 189 L 104 189 L 104 44 Z Z" stroke-miterlimit="10"></path></g><g transform="translate(-94,-34) scale(1,1)"><path fill="none" stroke="#000000" d="M 104 69 L 330 69" stroke-miterlimit="10"></path></g><g transform="translate(-94,-34) scale(1,1)"><path fill="none" stroke="#000000" d="M 104 107 L 330 107" stroke-miterlimit="10"></path></g><g transform="translate(-94,-34) scale(1,1)"><g><path fill="none" stroke="none"></path><text fill="#000000" stroke="none" font-family="Arial" font-size="13px" font-style="normal" font-weight="bold" text-decoration="none" x="168" y="63.5">TicTacToeWebUI</text></g></g><g transform="translate(-94,-34) scale(1,1)"><g><path fill="none" stroke="none"></path><text fill="#000000" stroke="none" font-family="Arial" font-size="13px" font-style="normal" font-weight="normal" text-decoration="none" x="109" y="86.5">-gameController: TicTacToeController</text></g></g><g transform="translate(-94,-34) scale(1,1)"><g><path fill="none" stroke="none"></path><text fill="#000000" stroke="none" font-family="Arial" font-size="13px" font-style="normal" font-weight="normal" text-decoration="none" x="109" y="101.5">-gameTurn: int</text></g></g><g transform="translate(-94,-34) scale(1,1)"><g><path fill="none" stroke="none"></path><text fill="#000000" stroke="none" font-family="Arial" font-size="13px" font-style="normal" font-weight="normal" text-decoration="none" x="109" y="124.5">+start()</text></g></g><g transform="translate(-94,-34) scale(1,1)"><g><path fill="none" stroke="none"></path><text fill="#000000" stroke="none" font-family="Arial" font-size="13px" font-style="normal" font-weight="normal" text-decoration="none" x="109" y="139.5">+body()</text></g></g><g transform="translate(-94,-34) scale(1,1)"><g><path fill="none" stroke="none"></path><text fill="#000000" stroke="none" font-family="Arial" font-size="13px" font-style="normal" font-weight="normal" text-decoration="none" x="109" y="154.5">+getScore()</text></g></g><g transform="translate(-94,-34) scale(1,1)"><g><path fill="none" stroke="none"></path><text fill="#000000" stroke="none" font-family="Arial" font-size="13px" font-style="normal" font-weight="normal" text-decoration="none" x="109" y="169.5">+displayBoard()</text></g></g><g transform="translate(-94,-34) scale(1,1)"><g><path fill="none" stroke="none"></path><text fill="#000000" stroke="none" font-family="Arial" font-size="13px" font-style="normal" font-weight="normal" text-decoration="none" x="109" y="184.5">+getHerokuAssignedPort()</text></g></g><g transform="translate(-94,-34) scale(1,1)"><rect fill="#C0C0C0" stroke="none" x="139" y="339" width="176" height="250" opacity="0.2"></rect></g><g transform="translate(-94,-34) scale(1,1)"><rect fill="#ffffff" stroke="none" x="132" y="332" width="176" height="250"></rect></g><g transform="translate(-94,-34) scale(1,1)"><path fill="none" stroke="#000000" d="M 132 332 L 308 332 L 308 582 L 132 582 L 132 332 Z Z" stroke-miterlimit="10"></path></g><g transform="translate(-94,-34) scale(1,1)"><path fill="none" stroke="#000000" d="M 132 357 L 308 357" stroke-miterlimit="10"></path></g><g transform="translate(-94,-34) scale(1,1)"><path fill="none" stroke="#000000" d="M 132 395 L 308 395" stroke-miterlimit="10"></path></g><g transform="translate(-94,-34) scale(1,1)"><g><path fill="none" stroke="none"></path><text fill="#000000" stroke="none" font-family="Arial" font-size="13px" font-style="normal" font-weight="bold" text-decoration="none" x="163" y="351.5">TicTacToeController</text></g></g><g transform="translate(-94,-34) scale(1,1)"><g><path fill="none" stroke="none"></path><text fill="#000000" stroke="none" font-family="Arial" font-size="13px" font-style="normal" font-weight="normal" text-decoration="none" x="137" y="374.5">-gameRepo: TicTacToeRepo</text></g></g><g transform="translate(-94,-34) scale(1,1)"><g><path fill="none" stroke="none"></path><text fill="#000000" stroke="none" font-family="Arial" font-size="13px" font-style="normal" font-weight="normal" text-decoration="none" x="137" y="389.5">-currentPlayer: int</text></g></g><g transform="translate(-94,-34) scale(1,1)"><g><path fill="none" stroke="none"></path><text fill="#000000" stroke="none" font-family="Arial" font-size="13px" font-style="normal" font-weight="normal" text-decoration="none" x="137" y="412.5">+startNewGame()</text></g></g><g transform="translate(-94,-34) scale(1,1)"><g><path fill="none" stroke="none"></path><text fill="#000000" stroke="none" font-family="Arial" font-size="13px" font-style="normal" font-weight="normal" text-decoration="none" x="137" y="427.5">+getPlayerScore()</text></g></g><g transform="translate(-94,-34) scale(1,1)"><g><path fill="none" stroke="none"></path><text fill="#000000" stroke="none" font-family="Arial" font-size="13px" font-style="normal" font-weight="normal" text-decoration="none" x="137" y="442.5">+getBoard()</text></g></g><g transform="translate(-94,-34) scale(1,1)"><g><path fill="none" stroke="none"></path><text fill="#000000" stroke="none" font-family="Arial" font-size="13px" font-style="normal" font-weight="normal" text-decoration="none" x="137" y="457.5">+getPlayerChar()</text></g></g><g transform="translate(-94,-34) scale(1,1)"><g><path fill="none" stroke="none"></path><text fill="#000000" stroke="none" font-family="Arial" font-size="13px" font-style="normal" font-weight="normal" text-decoration="none" x="137" y="472.5">+getCurrentPlayerChar()</text></g></g><g transform="translate(-94,-34) scale(1,1)"><g><path fill="none" stroke="none"></path><text fill="#000000" stroke="none" font-family="Arial" font-size="13px" font-style="normal" font-weight="normal" text-decoration="none" x="137" y="487.5">+getCurrentPlayer()</text></g></g><g transform="translate(-94,-34) scale(1,1)"><g><path fill="none" stroke="none"></path><text fill="#000000" stroke="none" font-family="Arial" font-size="13px" font-style="normal" font-weight="normal" text-decoration="none" x="137" y="502.5">+updatePlayer()</text></g></g><g transform="translate(-94,-34) scale(1,1)"><g><path fill="none" stroke="none"></path><text fill="#000000" stroke="none" font-family="Arial" font-size="13px" font-style="normal" font-weight="normal" text-decoration="none" x="137" y="517.5">+isMoveLegal()</text></g></g><g transform="translate(-94,-34) scale(1,1)"><g><path fill="none" stroke="none"></path><text fill="#000000" stroke="none" font-family="Arial" font-size="13px" font-style="normal" font-weight="normal" text-decoration="none" x="137" y="532.5">+makeMove()</text></g></g><g transform="translate(-94,-34) scale(1,1)"><g><path fill="none" stroke="none"></path><text fill="#000000" stroke="none" font-family="Arial" font-size="13px" font-style="normal" font-weight="normal" text-decoration="none" x="137" y="547.5">+getCell()</text></g></g><g transform="translate(-94,-34) scale(1,1)"><g><path fill="none" stroke="none"></path><text fill="#000000" stroke="none" font-family="Arial" font-size="13px" font-style="normal" font-weight="normal" text-decoration="none" x="137" y="562.5">-updateScore()</text></g></g><g transform="translate(-94,-34) scale(1,1)"><g><path fill="none" stroke="none"></path><text fill="#000000" stroke="none" font-family="Arial" font-size="13px" font-style="normal" font-weight="normal" text-decoration="none" x="137" y="577.5">+checkForWinner()</text></g></g><g transform="translate(-94,-34) scale(1,1)"><rect fill="#C0C0C0" stroke="none" x="463" y="363" width="109" height="205" opacity="0.2"></rect></g><g transform="translate(-94,-34) scale(1,1)"><rect fill="#ffffff" stroke="none" x="456" y="356" width="109" height="205"></rect></g><g transform="translate(-94,-34) scale(1,1)"><path fill="none" stroke="#000000" d="M 456 356 L 565 356 L 565 561 L 456 561 L 456 356 Z Z" stroke-miterlimit="10"></path></g><g transform="translate(-94,-34) scale(1,1)"><path fill="none" stroke="#000000" d="M 456 381 L 565 381" stroke-miterlimit="10"></path></g><g transform="translate(-94,-34) scale(1,1)"><path fill="none" stroke="#000000" d="M 456 449 L 565 449" stroke-miterlimit="10"></path></g><g transform="translate(-94,-34) scale(1,1)"><g><path fill="none" stroke="none"></path><text fill="#000000" stroke="none" font-family="Arial" font-size="13px" font-style="normal" font-weight="bold" text-decoration="none" x="466" y="375.5">TicTacToeRepo</text></g></g><g transform="translate(-94,-34) scale(1,1)"><g><path fill="none" stroke="none"></path><text fill="#000000" stroke="none" font-family="Arial" font-size="13px" font-style="normal" font-weight="normal" text-decoration="none" x="461" y="398.5">-board: char[][]</text></g></g><g transform="translate(-94,-34) scale(1,1)"><g><path fill="none" stroke="none"></path><text fill="#000000" stroke="none" font-family="Arial" font-size="13px" font-style="normal" font-weight="normal" text-decoration="none" x="461" y="413.5">-player: char[]</text></g></g><g transform="translate(-94,-34) scale(1,1)"><g><path fill="none" stroke="none"></path><text fill="#000000" stroke="none" font-family="Arial" font-size="13px" font-style="normal" font-weight="normal" text-decoration="none" x="461" y="428.5">-score: int[]</text></g></g><g transform="translate(-94,-34) scale(1,1)"><g><path fill="none" stroke="none"></path><text fill="#000000" stroke="none" font-family="Arial" font-size="13px" font-style="normal" font-weight="normal" text-decoration="none" x="461" y="443.5">-board_size: int</text></g></g><g transform="translate(-94,-34) scale(1,1)"><g><path fill="none" stroke="none"></path><text fill="#000000" stroke="none" font-family="Arial" font-size="13px" font-style="normal" font-weight="normal" text-decoration="none" x="461" y="466.5">-initializePlayer()</text></g></g><g transform="translate(-94,-34) scale(1,1)"><g><path fill="none" stroke="none"></path><text fill="#000000" stroke="none" font-family="Arial" font-size="13px" font-style="normal" font-weight="normal" text-decoration="none" x="461" y="481.5">+switchPlayers()</text></g></g><g transform="translate(-94,-34) scale(1,1)"><g><path fill="none" stroke="none"></path><text fill="#000000" stroke="none" font-family="Arial" font-size="13px" font-style="normal" font-weight="normal" text-decoration="none" x="461" y="496.5">+setScore()</text></g></g><g transform="translate(-94,-34) scale(1,1)"><g><path fill="none" stroke="none"></path><text fill="#000000" stroke="none" font-family="Arial" font-size="13px" font-style="normal" font-weight="normal" text-decoration="none" x="461" y="511.5">+getScore()</text></g></g><g transform="translate(-94,-34) scale(1,1)"><g><path fill="none" stroke="none"></path><text fill="#000000" stroke="none" font-family="Arial" font-size="13px" font-style="normal" font-weight="normal" text-decoration="none" x="461" y="526.5">+getBoard()</text></g></g><g transform="translate(-94,-34) scale(1,1)"><g><path fill="none" stroke="none"></path><text fill="#000000" stroke="none" font-family="Arial" font-size="13px" font-style="normal" font-weight="normal" text-decoration="none" x="461" y="541.5">+getPlayer()</text></g></g><g transform="translate(-94,-34) scale(1,1)"><g><path fill="none" stroke="none"></path><text fill="#000000" stroke="none" font-family="Arial" font-size="13px" font-style="normal" font-weight="normal" text-decoration="none" x="461" y="556.5">+initializeBoard()</text></g></g><g transform="translate(-94,-34) scale(1,1)"><path fill="none" stroke="#000000" d="M 218 190 L 219 331" stroke-miterlimit="10"></path></g><g transform="translate(-94,-34) scale(1,1)"><g><path fill="none" stroke="none"></path><text fill="#000000" stroke="none" font-family="Arial" font-size="13px" font-style="normal" font-weight="normal" text-decoration="none" x="203" y="316">1</text></g></g><g transform="translate(-94,-34) scale(1,1)"><path fill="none" stroke="#000000" d="M 309 457 L 455 458" stroke-miterlimit="10"></path></g><g transform="translate(-94,-34) scale(1,1)"><g><path fill="none" stroke="none"></path><text fill="#000000" stroke="none" font-family="Arial" font-size="13px" font-style="normal" font-weight="normal" text-decoration="none" x="430" y="477">1</text></g></g></g></svg>